<?xml version="1.0" encoding="utf-8"?>
<!-- Generator: Adobe Illustrator 18.1.1, SVG Export Plug-In . SVG Version: 6.00 Build 0)  -->
<svg version="1.1" id="Layer_1" xmlns="http://www.w3.org/2000/svg" xmlns:xlink="http://www.w3.org/1999/xlink" x="0px" y="0px"
	 viewBox="0 0 600 400" enable-background="new 0 0 600 400" xml:space="preserve">
<g>
	<g>
		<polygon fill="#9A916F" points="413.6,205.8 422,209.6 430.4,213.4 413.6,213.4 396.8,213.4 405.2,209.6 		"/>
		<rect x="376.4" y="260.9" fill="#FFC122" width="120.6" height="140.1"/>
		<polygon fill="#664D25" stroke="#664D25" stroke-width="0.2" stroke-miterlimit="10" points="497,260.9 376.4,260.9 397.1,233.9 
			476.3,233.9 		"/>
		<rect x="376.4" y="260.9" fill="#FFAAA8" width="120.6" height="9"/>
		<rect x="397.2" y="213.4" fill="#664D25" width="32.9" height="29.5"/>
		<rect x="445" y="214.3" fill="#664D25" width="32.2" height="29.5"/>
		<polygon fill="#9A916F" points="461.2,206.7 469.4,210.5 477.6,214.3 461.2,214.3 444.7,214.3 452.9,210.5 		"/>
		<path fill="#FFFFFF" d="M410,283.2c6,0,10.9,5.1,10.9,11.4v18.5l-21.9,0.1l0.2-18.6C399.2,288.2,404,283.2,410,283.2L410,283.2"/>
		<path fill="#A2A242" stroke="#A2A242" stroke-width="13.0919" stroke-miterlimit="10" d="M420.7,292.4c0-5-4.8-9.1-10.6-9.1
			s-10.6,4.1-10.6,9.1H420.7z"/>
		<path fill="#FFFFFF" d="M462.4,283.6c6,0,10.9,5.1,10.9,11.4v18.5l-21.9,0.1l0.2-18.6C451.5,288.7,456.4,283.6,462.4,283.6
			L462.4,283.6"/>
		<path fill="#A2A242" stroke="#A2A242" stroke-width="13.0919" stroke-miterlimit="10" d="M473,292.8c0-5-4.8-9.1-10.6-9.1
			c-5.9,0-10.6,4.1-10.6,9.1H473z"/>
		<rect x="406.8" y="218.6" fill="#FFFFFF" width="13.4" height="11.5"/>
		<rect x="454.8" y="218.8" fill="#FFFFFF" width="13.4" height="11.5"/>
		<path fill="#FF5774" stroke="#FF5774" stroke-width="14.2371" stroke-miterlimit="10" d="M447,395c0-15.2-4.8-27.5-10.6-27.5
			s-10.6,12.3-10.6,27.5H447z"/>
		<path fill="#FFFFFF" d="M410,324.9c6,0,10.9,5.1,10.9,11.4v18.5l-21.9,0.1l0.2-18.6C399.2,330,404,324.9,410,324.9L410,324.9"/>
		<path fill="#A2A242" stroke="#A2A242" stroke-width="13.0919" stroke-miterlimit="10" d="M420.7,334.2c0-5-4.8-9.1-10.6-9.1
			s-10.6,4.1-10.6,9.1H420.7z"/>
		<path fill="#FFFFFF" d="M462.4,325.4c6,0,10.9,5.1,10.9,11.4v18.5l-21.9,0.1l0.2-18.6C451.5,330.5,456.4,325.4,462.4,325.4
			L462.4,325.4"/>
		<path fill="#A2A242" stroke="#A2A242" stroke-width="13.0919" stroke-miterlimit="10" d="M473,334.6c0-5-4.8-9.1-10.6-9.1
			c-5.9,0-10.6,4.1-10.6,9.1H473z"/>
	</g>
	<path fill="#A2A242" d="M376.6,113.9V400H212.9c0,0,0-285.5,0-285.7c0-0.2,17.7-8.2,19.5-9.3c7.1-4.5,13.7-9.9,19.2-16.2
		c11.4-13.1,13.9-26.4,13.9-43.2c0-15.4,12.5-27.9,28-27.9c7.7,0,14.7,3.1,19.8,8.2c5.1,5.1,8.2,12,8.2,19.8
		c0,17.1,3.2,30.2,14.7,43.3C346.8,100.9,361.2,109.4,376.6,113.9z"/>
	<g>
		<circle fill="#62D4D4" cx="293.4" cy="94.4" r="19.4"/>
		<g>
			
				<line fill="none" stroke="#205D76" stroke-width="1.709" stroke-linecap="round" stroke-linejoin="round" stroke-miterlimit="10" x1="293.4" y1="95.9" x2="293.4" y2="83.2"/>
			
				<line fill="none" stroke="#205D76" stroke-width="1.709" stroke-linecap="round" stroke-linejoin="round" stroke-miterlimit="10" x1="293.4" y1="95.9" x2="304.9" y2="95.9"/>
		</g>
	</g>
	<g>
		<path fill="#FFFFFF" d="M257.3,153c9.7,0,17.6,9.6,17.6,21.5v35l-35.5,0.2l0.2-35.1C239.6,162.6,247.5,153,257.3,153L257.3,153"/>
		<rect x="239.4" y="208.7" fill="#FFAAA8" width="35.5" height="6"/>
	</g>
	<g>
		<path fill="#FFFFFF" d="M330,153.6c9.7,0,17.6,9.6,17.6,21.5v35l-35.5,0.2l0.2-35.1C312.4,163.2,320.3,153.6,330,153.6L330,153.6"
			/>
		<rect x="312.1" y="209.3" fill="#FFAAA8" width="35.5" height="6"/>
	</g>
	<path fill="#FFFFFF" d="M294.1,237.4c21.7,0,39.3,9.6,39.3,21.5v35l-79.2,0.2l0.6-35.1C254.8,247.1,272.4,237.4,294.1,237.4
		L294.1,237.4"/>
	<g>
		<path fill="#FFAAA8" stroke="#FFAAA8" stroke-width="0.9741" stroke-miterlimit="10" d="M293.3,320.1c20.1,0,36.4,6.3,36.4,14.1
			l-32.4,21.1l-26-5.7l-14.5-15.4C256.9,326.4,273.2,320.1,293.3,320.1L293.3,320.1"/>
		<rect x="256.4" y="332.9" fill="#FFD265" width="73.8" height="67.1"/>
		<line fill="none" stroke="#A2A242" stroke-width="6.8474" stroke-miterlimit="10" x1="294" y1="332.8" x2="294" y2="400"/>
	</g>
	
		<path fill="#604339" stroke="#604339" stroke-width="0.581" stroke-linecap="round" stroke-linejoin="round" stroke-miterlimit="10" d="
		M308.8,277.3c2.2-3.8,2.8-8.5,2.8-13.5c0-13.1-6.1-23.8-17-23.8s-17,10.6-17,23.8c0,5.1-0.1,9.7,2.2,13.6L308.8,277.3z"/>
	<ellipse fill="#EECEA9" stroke="#EECEA9" stroke-width="0.7322" stroke-miterlimit="10" cx="281.9" cy="258.4" rx="2.7" ry="3.1"/>
	<ellipse fill="#EECEA9" stroke="#EECEA9" stroke-width="0.7322" stroke-miterlimit="10" cx="307.3" cy="258.4" rx="2.7" ry="3.1"/>
	<path fill="#EECEA9" stroke="#EECEA9" stroke-width="0.6785" stroke-miterlimit="10" d="M298.1,271.5c0,0.2,0.1,0.5,0.1,0.7v5.3
		c0,1.9-1.5,3.4-3.4,3.4c-0.9,0-1.8-0.4-2.4-1c-0.6-0.6-1-1.5-1-2.4v-5.3c0-0.2,0-0.4,0.1-0.6c-5.5-1.6-9.6-7.1-9.6-13.7
		c0-7.8,5.7-14.1,12.7-14.1s12.7,6.3,12.7,14.1C307.4,264.4,303.5,269.8,298.1,271.5z"/>
	<path fill="#FF5774" stroke="#FF5774" stroke-width="0.6785" stroke-miterlimit="10" d="M280.6,296.6c0-0.6-0.1-1.3-0.1-1.9l0,0
		c0-9.6,4.5-17.4,9.9-17.4h8.8c5.5,0,9.9,7.8,9.9,17.4l0,0c0,0.3,0,0.7,0,1"/>
	<circle fill="#FF5774" cx="287.4" cy="259.3" r="1.7"/>
	<circle fill="#FF5774" cx="301.7" cy="259.4" r="1.7"/>
	
		<path fill="none" stroke="#333333" stroke-width="0.646" stroke-linecap="round" stroke-linejoin="round" stroke-miterlimit="10" d="
		M289.2,253.4c0-0.8,0.8-1.4,1.8-1.4c1,0,1.8,0.6,1.8,1.4"/>
	
		<path fill="none" stroke="#333333" stroke-width="0.646" stroke-linecap="round" stroke-linejoin="round" stroke-miterlimit="10" d="
		M296.7,253.5c0-0.8,0.8-1.4,1.8-1.4s1.8,0.6,1.8,1.4"/>
	
		<path fill="#604339" stroke="#604339" stroke-width="0.581" stroke-linecap="round" stroke-linejoin="round" stroke-miterlimit="10" d="
		M298.3,244.4c0,0,5.2,9.9,8.8,10.2C311.1,255,306.2,242.8,298.3,244.4z"/>
	
		<path fill="#604339" stroke="#604339" stroke-width="0.581" stroke-linecap="round" stroke-linejoin="round" stroke-miterlimit="10" d="
		M281.8,254.6c0,0,13.3-1.1,16.5-10.1C301.6,235.4,276.1,245.1,281.8,254.6z"/>
	
		<path fill="#FFFFFF" stroke="#FFFFFF" stroke-width="0.5492" stroke-linecap="round" stroke-linejoin="round" stroke-miterlimit="10" d="
		M299.3,263.7c0,2.6-2.1,4.8-4.8,4.8s-4.8-2.1-4.8-4.8H299.3z"/>
	<path fill="#FF5774" stroke="#FF5774" stroke-width="0.6785" stroke-miterlimit="10" d="M316.8,272.2c1.1,1.7,0.6,4-1.1,5.1
		l-8.3,5.3c-1.7,1.1-4,0.6-5.1-1.1l0,0c-1.1-1.7-0.6-4,1.1-5.1l8.3-5.3C313.4,269.9,315.7,270.4,316.8,272.2L316.8,272.2z"/>
	<path fill="#EECEA9" stroke="#EECEA9" stroke-width="0.7357" stroke-miterlimit="10" d="M317.7,256.8c2,0.4,3.2,2.6,2.8,5
		l-2.2,11.4c-0.5,2.3-2.4,3.9-4.4,3.6l0,0c-2-0.4-3.2-2.6-2.8-5l2.2-11.4C313.7,258,315.7,256.4,317.7,256.8L317.7,256.8z"/>
	<path fill="#FF5774" stroke="#FF5774" stroke-width="0.7287" stroke-miterlimit="10" d="M286.4,277.6c1.9,0.8,2.6,3.2,1.6,5.4
		l-4.6,10.4c-1,2.1-3.2,3.2-5.1,2.4l0,0c-1.9-0.8-2.6-3.2-1.6-5.4l4.6-10.4C282.2,277.9,284.5,276.8,286.4,277.6L286.4,277.6z"/>
	<path fill="#EECEA9" stroke="#EECEA9" stroke-width="0.7357" stroke-miterlimit="10" d="M275.2,295.7l0.5-2.6
		c0.5-2.3,2.4-3.9,4.4-3.6l0,0c2,0.4,3.2,2.6,2.8,5l-0.2,1"/>
	<rect x="254.2" y="293.1" fill="#FFAAA8" width="79.2" height="6"/>
	<rect x="103.1" y="313.3" fill="#FFA09E" width="109.8" height="87.1"/>
	<rect x="108.9" y="259.5" fill="#FFA09E" width="97.7" height="54.9"/>
	<rect x="121.6" y="219.4" fill="#FFA09E" width="71.6" height="40.3"/>
	<polygon fill="#205D76" stroke="#205D76" stroke-width="0.1" stroke-miterlimit="10" points="157.4,202.7 175.2,211 193,219.4 
		157.4,219.4 121.8,219.4 139.6,211 	"/>
	<rect x="146.5" y="360.2" fill="#205D76" width="22.5" height="39.7"/>
	<rect x="108.9" y="259.3" fill="#205D76" width="97.7" height="5.9"/>
	<rect x="103" y="313.3" fill="#205D76" width="110" height="5.1"/>
	<path fill="#FFFFFF" d="M178.3,250.1c0-11.9-9.2-21.5-20.6-21.5c-11.4,0-20.6,9.6-20.6,21.5H178.3z"/>
	<rect x="136.6" y="249.9" fill="#205D76" width="42.2" height="2.2"/>
	<path fill="#FFFFFF" stroke="#FFFFFF" stroke-width="0.7" stroke-miterlimit="10" d="M168.7,360.3c0-4.6-4.9-8.4-11-8.4
		c-6.1,0-11,3.8-11,8.4H168.7z"/>
	<rect x="121.8" y="273.8" fill="#FFD265" width="27.9" height="26.6"/>
	<rect x="165.6" y="273.8" fill="#FFD265" width="27.9" height="26.6"/>
	<ellipse fill="#FFFFFF" cx="123.7" cy="368.1" rx="12.6" ry="13.1"/>
	<ellipse fill="#FFFFFF" cx="192.8" cy="368.1" rx="12.6" ry="13.1"/>
	<g>
		<rect x="103.1" y="318.3" fill="#FFFFFF" width="109.8" height="3.3"/>
		<ellipse fill="#FFFFFF" cx="111.9" cy="321.6" rx="8.8" ry="3.3"/>
		<ellipse fill="#FFFFFF" cx="126.5" cy="321.8" rx="8.8" ry="3.3"/>
		<ellipse fill="#FFFFFF" cx="141.8" cy="321.8" rx="8.8" ry="3.3"/>
		<ellipse fill="#FFFFFF" cx="157.6" cy="321.7" rx="8.8" ry="3.3"/>
		<ellipse fill="#FFFFFF" cx="173.2" cy="321.8" rx="8.8" ry="3.3"/>
		<ellipse fill="#FFFFFF" cx="188.7" cy="321.8" rx="8.8" ry="3.3"/>
		<ellipse fill="#FFFFFF" cx="204.1" cy="321.8" rx="8.8" ry="3.3"/>
	</g>
</g>
</svg>
